# xmcd CD database file
#
# Track frame offsets:
#	150
#	29273
#	45060
#	72699
#	111350
#	134104
#	168241
#	237754
#	281677
#
# Disc length: 4154 seconds
#
# Revision: 0
# Processed by: cddbd v1.5.1PL0 Copyright (c) Steve Scherf et al.
# Submitted via: CDex 1.51
#
DISCID=7f103809
DTITLE=Jean Schwarz - et Benat Archiary Disc 2 Itzala
DYEAR=1998
DGENRE=Jazz
TTITLE0=Harria
TTITLE1=Special calls
TTITLE2=Urtxoa
TTITLE3=Aizkolari
TTITLE4=Campardou
TTITLE5=Goizean Goizik
TTITLE6=Bazteretik
TTITLE7=Forge
TTITLE8=Fandanga
EXTD=YEAR: 1998
EXTT0=
EXTT1=
EXTT2=
EXTT3=
EXTT4=
EXTT5=
EXTT6=
EXTT7=
EXTT8=
PLAYORDER=
